<svg width="358" height="85" viewBox="0 0 358 85" fill="none" xmlns="http://www.w3.org/2000/svg">
<mask id="path-1-inside-1_508_385" fill="white">
<path d="M-2 -1H358V78C322.852 86.3002 303.148 85.872 268 78C235.116 86.481 215.502 86.8367 178 78C142.855 85.465 123.142 85.5312 88 78C52.8538 84.0765 33.1462 83.5133 -2 78V-1Z"/>
</mask>
<path d="M-2 -1H358V78C322.852 86.3002 303.148 85.872 268 78C235.116 86.481 215.502 86.8367 178 78C142.855 85.465 123.142 85.5312 88 78C52.8538 84.0765 33.1462 83.5133 -2 78V-1Z" fill="#FFEDAE" stroke="#FFC900" stroke-width="8" mask="url(#path-1-inside-1_508_385)"/>
<path d="M178.342 49.378C178.348 49.2787 178.443 49.3493 178.495 49.3723C178.557 49.3998 178.614 49.3524 178.674 49.3524C178.899 49.3524 179.168 49.2871 179.389 49.2304C179.967 49.0817 180.586 49.1465 181.176 49.0517C181.558 48.9903 181.942 48.9419 182.325 48.8871C182.52 48.8592 182.699 48.7651 182.893 48.7339C183.072 48.705 183.247 48.6604 183.423 48.6176C183.742 48.54 184.054 48.4652 184.362 48.3509C184.46 48.3148 184.522 48.2231 184.629 48.1976C184.685 48.1843 184.834 48.1267 184.7 48.1267" stroke="#FFEDAE" stroke-width="1.61869" stroke-linecap="round"/>
<path d="M178.469 49.1993C178.553 49.1153 178.689 49.1148 178.798 49.0844C178.869 49.0647 178.89 49.1227 178.954 49.1227" stroke="#FFEDAE" stroke-width="1.61869" stroke-linecap="round"/>
<path d="M179.133 49.2503C179.383 49.1311 179.634 49.1558 179.899 49.0914C179.95 49.079 180.188 49.0111 180.206 49.046" stroke="#FFEDAE" stroke-width="1.61869" stroke-linecap="round"/>
<path d="M179.133 49.1226C179.152 49.0478 179.935 49.0414 180.021 49.0332C180.302 49.0063 180.587 48.9438 180.869 48.9438" stroke="#FFEDAE" stroke-width="1.61869" stroke-linecap="round"/>
<path d="M179.72 49.1992C179.962 49.111 180.225 49.0869 180.478 49.0474C180.795 48.9979 181.111 48.9413 181.43 48.907C181.715 48.8763 182.013 48.8162 182.3 48.8162" stroke="#FFEDAE" stroke-width="1.61869" stroke-linecap="round"/>
<path d="M181.482 48.9695C181.692 48.8882 181.918 48.8626 182.136 48.8163C182.388 48.7631 182.636 48.6939 182.887 48.6375C183.217 48.5632 183.555 48.5152 183.883 48.4332" stroke="#FFEDAE" stroke-width="1.61869" stroke-linecap="round"/>
<path d="M183.347 48.4077C183.577 48.2544 183.969 48.2726 184.232 48.229C184.432 48.1957 184.624 48.1523 184.828 48.1523" stroke="#FFEDAE" stroke-width="1.61869" stroke-linecap="round"/>
<path d="M183.832 48.3566C184.062 48.2314 184.384 48.1523 184.649 48.1523" stroke="#FFEDAE" stroke-width="1.61869" stroke-linecap="round"/>
<path d="M188.224 46.5436C188.224 46.4521 188.268 46.5329 188.235 46.5422C188.197 46.553 188.159 46.5703 188.122 46.589C188.014 46.6431 187.915 46.6409 187.804 46.6727C187.733 46.693 187.686 46.781 187.598 46.8004C187.513 46.8194 187.405 46.8635 187.33 46.9011" stroke="#FFEDAE" stroke-width="1.61869" stroke-linecap="round"/>
<path d="M196.117 44.9391L192.391 47.5053L189.41 49.5583L185.227 51.7801L180.53 53.2567L176.523 53.8192L172.516 54.3818L167.507 54.7281L165.657 54.7147C164.812 54.7085 163.969 54.6362 163.136 54.4985L159.786 53.945L157.541 53.0139C156 52.4879 153.887 51.2784 153.206 50.7346C152.338 50.0406 151.56 47.7442 151.792 46.4857L153.177 44.7087L156.43 41.6767L159.439 39.8277L162.883 38.1624L165.601 37.1452L168.782 36.5171L171.587 36.1233L174.793 35.6732L177.63 35.5032L181.75 35.7421L185.068 36.0936L188.843 36.7895L191.385 37.4305L195.136 37.9494L197.941 37.5556L199.129 37.0608L199.939 36.5171L202.367 34.6334L204.834 32.2048L207.315 29.6458L210.865 26.1353L214.167 22.6102L216.829 19.8542L220.577 15.6645L223.005 13.1851L225.028 11.1617C226.462 9.73447 226.243 9.54369 227.861 7.925C228.501 7.28516 229.139 6.81949 229.885 6.30631C230.247 6.05661 230.611 6.25468 231.559 7.46893C231.762 7.72769 231.735 8.09682 231.503 8.32902L231.099 8.73435L229.479 10.3524L228.266 11.5671L225.837 14.3991L224.357 16.0685L222.6 18.0412C222.195 18.4459 221.082 19.8631 220.576 20.4692C219.482 21.7823 218.795 22.6551 218.148 23.3019C218.035 23.415 217.891 23.5517 217.725 23.7065L215.174 26.6031C215.079 26.8498 214.698 27.1597 214.102 27.7533L209.65 32.6094L207.222 35.0375L204.834 37.4305L201.153 41.1082L198.729 43.1662L196.117 44.9391Z" fill="#979797"/>
<path d="M220.576 20.4692C221.082 19.8631 222.195 18.4459 222.6 18.0412L224.357 16.0685L225.837 14.3991L228.266 11.5671L229.479 10.3524L231.099 8.73435L231.503 8.32902V8.32902C231.735 8.09682 231.762 7.72769 231.559 7.46893C230.611 6.25468 230.247 6.05661 229.885 6.30631C229.139 6.81949 228.501 7.28516 227.861 7.925C226.243 9.54369 226.462 9.73447 225.028 11.1617L223.005 13.1851L220.577 15.6645L216.829 19.8542L214.167 22.6102L210.865 26.1353L207.315 29.6458L204.834 32.2048L202.367 34.6334L199.939 36.5171L199.129 37.0608L197.941 37.5556L195.136 37.9494L191.385 37.4305L188.843 36.7895L185.068 36.0936L181.75 35.7421L177.63 35.5032L174.793 35.6732L171.587 36.1233L168.782 36.5171L165.601 37.1452L162.883 38.1624L159.439 39.8277L156.43 41.6767L153.177 44.7087L151.792 46.4857C151.56 47.7442 152.338 50.0406 153.206 50.7346C154.127 51.4703 157.67 53.4248 158.872 53.256L157.541 53.0139L159.786 53.945L163.136 54.4985C163.969 54.6362 164.812 54.7085 165.657 54.7147L167.507 54.7281L172.516 54.3818L176.523 53.8192L180.53 53.2567L185.227 51.7801L189.41 49.5584L192.391 47.5053L196.117 44.9391L198.729 43.1662L201.153 41.1082L204.834 37.4305L207.222 35.0375L209.65 32.6094L214.102 27.7533C215.536 26.3259 215.72 26.5393 213.697 25.3253C212.316 24.4966 217.29 23.7557 218.148 22.8973C219.767 21.2786 220.135 20.895 220.576 20.4692ZM220.576 20.4692C219.482 21.7823 218.795 22.6551 218.148 23.3019C217.339 24.1113 214.921 26.134 214.517 27.3487L220.576 20.4692Z" stroke="#979797" stroke-width="0.809347"/>
<path d="M156.568 48.6314L156.257 48.397C156.062 48.2501 155.892 48.0726 155.753 47.8715L155.585 47.6274C155.496 47.4975 155.438 47.3486 155.416 47.1924C155.401 47.0843 155.403 46.9744 155.423 46.867L155.487 46.5165C155.578 46.026 155.781 45.5633 156.081 45.165L156.658 44.3996C157.692 43.0286 158.093 42.9724 158.838 42.4591C158.962 42.3735 159.185 42.2598 159.436 42.1349C160.326 41.6926 161.174 41.1219 162.036 40.6282C162.425 40.4056 162.833 40.2191 163.256 40.071L164.568 39.6116C165.217 39.3842 166.062 38.9932 166.515 38.9296C166.916 38.8733 168.062 38.3038 168.863 38.1913L169.48 38.1048C170.135 38.0128 170.785 37.8575 171.441 37.7692C172.2 37.6671 173.159 37.5883 173.672 37.5162L175.275 37.2912L177.68 36.9537L180.942 36.9044L183.002 37.0239L184.661 37.1996L186.612 37.5593C186.975 37.626 187.331 37.718 187.688 37.8099L187.731 37.821C188.2 37.9417 188.767 38.0688 189.073 38.1358C189.221 38.1682 189.367 38.2028 189.511 38.2498C189.626 38.2873 189.775 38.3396 189.929 38.4036C190.421 38.6084 190.823 38.9781 191.249 39.2989L191.523 39.5055L192.612 40.3264C192.793 40.4625 192.912 40.6647 192.943 40.8886C192.983 41.1709 192.879 41.4543 192.666 41.6438L191.917 42.3107L191.39 42.8352C190.789 43.4331 190.096 43.9302 189.337 44.3074L188.191 44.8769L187.613 45.1638C187.235 45.352 186.842 45.5101 186.439 45.6369L184.697 46.1847L183.15 46.8105L179.599 47.7175L176.45 48.5683L173.644 48.9621L171.24 49.2996L168.034 49.7497C167.354 49.7599 166.407 49.7547 165.791 49.7493C165.379 49.7456 164.968 49.7732 164.557 49.8063C163.94 49.8561 162.936 49.9006 161.91 49.792L160.201 49.7481C159.702 49.7353 159.205 49.6686 158.72 49.5493L158.265 49.4375C157.65 49.2865 157.073 49.0122 156.568 48.6314Z" fill="#B5B5B5" stroke="#979797" stroke-width="0.809347"/>
<path d="M229.479 7.63214L230.393 8.32112" stroke="#FFEDAE" stroke-width="0.809347"/>
<text transform="translate(166.115 21.1631) rotate(-6.62521)" fill="black"  xml:space="preserve" style="white-space: pre" font-family="Noto Serif JP" font-size="22" font-weight="100" letter-spacing="0em"><tspan x="4.7369" y="20.785">&#x6e1b;</tspan></text>
<text transform="translate(145.236 26.2366) rotate(-13.642)" fill="black"  xml:space="preserve" style="white-space: pre" font-family="Noto Serif JP" font-size="22" font-weight="100" letter-spacing="0em"><tspan x="4.28093" y="20.785">&#x52a0;</tspan></text>
<text transform="translate(127 40.3431) rotate(-24.5295)" fill="#0C0C0C"  xml:space="preserve" style="white-space: pre" font-family="Noto Serif JP" font-size="21" font-weight="100" letter-spacing="0em"><tspan x="0.548049" y="18.709">&#x3058;</tspan></text>
<text transform="translate(108 56.7136) rotate(-26.8092)" fill="#0C0C0C"  xml:space="preserve" style="white-space: pre" font-family="Noto Serif JP" font-size="21" font-weight="100" letter-spacing="0em"><tspan x="2.37714" y="18.709">&#x3055;</tspan></text>
</svg>
