<svg width="358" height="85" viewBox="0 0 358 85" fill="none" xmlns="http://www.w3.org/2000/svg">
<mask id="path-1-inside-1_508_385" fill="white">
<path d="M-2 -1H358V78C322.852 86.3002 303.148 85.872 268 78C235.116 86.481 215.502 86.8367 178 78C142.855 85.465 123.142 85.5312 88 78C52.8538 84.0765 33.1462 83.5133 -2 78V-1Z"/>
</mask>
<path d="M-2 -1H358V78C322.852 86.3002 303.148 85.872 268 78C235.116 86.481 215.502 86.8367 178 78C142.855 85.465 123.142 85.5312 88 78C52.8538 84.0765 33.1462 83.5133 -2 78V-1Z" fill="#FFEDAE" stroke="#FFC900" stroke-width="8" mask="url(#path-1-inside-1_508_385)"/>
<path d="M178.342 54.3781C178.348 54.2788 178.443 54.3495 178.495 54.3724C178.557 54.3999 178.614 54.3526 178.674 54.3526C178.899 54.3526 179.168 54.2873 179.389 54.2305C179.967 54.0818 180.586 54.1466 181.176 54.0518C181.558 53.9904 181.942 53.942 182.325 53.8872C182.52 53.8594 182.699 53.7652 182.893 53.734C183.072 53.7051 183.247 53.6605 183.423 53.6177C183.742 53.5401 184.054 53.4653 184.362 53.351C184.46 53.3149 184.522 53.2233 184.629 53.1978C184.685 53.1844 184.834 53.1268 184.7 53.1268" stroke="#FFEDAE" stroke-width="1.61869" stroke-linecap="round"/>
<path d="M178.469 54.1994C178.553 54.1154 178.689 54.1149 178.798 54.0845C178.869 54.0649 178.89 54.1228 178.954 54.1228" stroke="#FFEDAE" stroke-width="1.61869" stroke-linecap="round"/>
<path d="M179.133 54.2504C179.383 54.1312 179.634 54.1559 179.899 54.0915C179.95 54.0791 180.188 54.0112 180.206 54.0461" stroke="#FFEDAE" stroke-width="1.61869" stroke-linecap="round"/>
<path d="M179.133 54.1227C179.152 54.0479 179.935 54.0416 180.021 54.0333C180.302 54.0064 180.587 53.944 180.869 53.944" stroke="#FFEDAE" stroke-width="1.61869" stroke-linecap="round"/>
<path d="M179.72 54.1993C179.962 54.1111 180.225 54.087 180.478 54.0475C180.795 53.9981 181.111 53.9414 181.43 53.9071C181.715 53.8764 182.013 53.8163 182.3 53.8163" stroke="#FFEDAE" stroke-width="1.61869" stroke-linecap="round"/>
<path d="M181.482 53.9696C181.692 53.8883 181.918 53.8627 182.136 53.8164C182.388 53.7632 182.636 53.6941 182.887 53.6376C183.217 53.5633 183.555 53.5153 183.883 53.4333" stroke="#FFEDAE" stroke-width="1.61869" stroke-linecap="round"/>
<path d="M183.347 53.4078C183.577 53.2545 183.969 53.2727 184.232 53.2291C184.432 53.1958 184.624 53.1525 184.828 53.1525" stroke="#FFEDAE" stroke-width="1.61869" stroke-linecap="round"/>
<path d="M183.832 53.3568C184.062 53.2316 184.384 53.1525 184.649 53.1525" stroke="#FFEDAE" stroke-width="1.61869" stroke-linecap="round"/>
<path d="M188.224 51.5437C188.224 51.4522 188.268 51.533 188.235 51.5423C188.197 51.5532 188.159 51.5704 188.122 51.5891C188.014 51.6432 187.915 51.641 187.804 51.6728C187.733 51.6931 187.686 51.7811 187.598 51.8005C187.513 51.8195 187.405 51.8636 187.33 51.9012" stroke="#FFEDAE" stroke-width="1.61869" stroke-linecap="round"/>
<path d="M196.117 49.9392L192.391 52.5055L189.41 54.5585L185.227 56.7803L180.53 58.2568L176.523 58.8194L172.516 59.3819L167.507 59.7282L165.657 59.7148C164.812 59.7086 163.969 59.6364 163.136 59.4986L159.786 58.9451L157.541 58.014C156 57.488 153.887 56.2785 153.206 55.7347C152.338 55.0407 151.56 52.7443 151.792 51.4858L153.177 49.7089L156.43 46.6769L159.439 44.8278L162.883 43.1625L165.601 42.1453L168.782 41.5172L171.587 41.1234L174.793 40.6734L177.63 40.5033L181.75 40.7422L185.068 41.0937L188.843 41.7896L191.385 42.4306L195.136 42.9495L197.941 42.5557L199.129 42.061L199.939 41.5172L202.367 39.6336L204.834 37.2049L207.315 34.6459L210.865 31.1354L214.167 27.6103L216.829 24.8544L220.577 20.6646L223.005 18.1852L225.028 16.1618C226.462 14.7346 226.243 14.5438 227.861 12.9251C228.501 12.2853 229.139 11.8196 229.885 11.3064C230.247 11.0567 230.611 11.2548 231.559 12.4691C231.762 12.7278 231.735 13.0969 231.503 13.3291L231.099 13.7345L229.479 15.3525L228.266 16.5672L225.837 19.3992L224.357 21.0686L222.6 23.0413C222.195 23.446 221.082 24.8633 220.576 25.4693C219.482 26.7824 218.795 27.6552 218.148 28.3021C218.035 28.4151 217.891 28.5518 217.725 28.7066L215.174 31.6032C215.079 31.85 214.698 32.1598 214.102 32.7535L209.65 37.6095L207.222 40.0376L204.834 42.4306L201.153 46.1084L198.729 48.1663L196.117 49.9392Z" fill="#979797"/>
<path d="M220.576 25.4693C221.082 24.8633 222.195 23.446 222.6 23.0413L224.357 21.0686L225.837 19.3992L228.266 16.5672L229.479 15.3525L231.099 13.7345L231.503 13.3291V13.3291C231.735 13.0969 231.762 12.7278 231.559 12.4691C230.611 11.2548 230.247 11.0567 229.885 11.3064C229.139 11.8196 228.501 12.2853 227.861 12.9251C226.243 14.5438 226.462 14.7346 225.028 16.1618L223.005 18.1852L220.577 20.6646L216.829 24.8544L214.167 27.6103L210.865 31.1354L207.315 34.6459L204.834 37.2049L202.367 39.6336L199.939 41.5172L199.129 42.061L197.941 42.5557L195.136 42.9495L191.385 42.4306L188.843 41.7896L185.068 41.0937L181.75 40.7422L177.63 40.5033L174.793 40.6734L171.587 41.1234L168.782 41.5172L165.601 42.1453L162.883 43.1625L159.439 44.8278L156.43 46.6769L153.177 49.7089L151.792 51.4858C151.56 52.7443 152.338 55.0407 153.206 55.7347C154.127 56.4704 157.67 58.4249 158.872 58.2561L157.541 58.014L159.786 58.9451L163.136 59.4986C163.969 59.6364 164.812 59.7086 165.657 59.7148L167.507 59.7282L172.516 59.3819L176.523 58.8194L180.53 58.2568L185.227 56.7803L189.41 54.5585L192.391 52.5055L196.117 49.9392L198.729 48.1663L201.153 46.1084L204.834 42.4306L207.222 40.0376L209.65 37.6095L214.102 32.7535C215.536 31.3261 215.72 31.5394 213.697 30.3254C212.316 29.4967 217.29 28.7558 218.148 27.8974C219.767 26.2787 220.135 25.8952 220.576 25.4693ZM220.576 25.4693C219.482 26.7824 218.795 27.6552 218.148 28.3021C217.339 29.1114 214.921 31.1341 214.517 32.3488L220.576 25.4693Z" stroke="#979797" stroke-width="0.809347"/>
<path d="M156.568 53.6316L156.257 53.3971C156.062 53.2502 155.892 53.0727 155.753 52.8717L155.585 52.6275C155.496 52.4976 155.438 52.3487 155.416 52.1925C155.401 52.0844 155.403 51.9745 155.423 51.8671L155.487 51.5166C155.578 51.0261 155.781 50.5634 156.081 50.1652L156.658 49.3998C157.692 48.0288 158.093 47.9725 158.838 47.4593C158.962 47.3737 159.185 47.2599 159.436 47.135C160.326 46.6927 161.174 46.122 162.036 45.6284C162.425 45.4057 162.833 45.2192 163.256 45.0711L164.568 44.6117C165.217 44.3844 166.062 43.9933 166.515 43.9297C166.916 43.8734 168.062 43.3039 168.863 43.1914L169.48 43.1049C170.135 43.0129 170.785 42.8576 171.441 42.7693C172.2 42.6672 173.159 42.5884 173.672 42.5163L175.275 42.2914L177.68 41.9538L180.942 41.9045L183.002 42.024L184.661 42.1997L186.612 42.5594C186.975 42.6261 187.331 42.7181 187.688 42.81L187.731 42.8211C188.2 42.9419 188.767 43.0689 189.073 43.1359C189.221 43.1683 189.367 43.203 189.511 43.25C189.626 43.2875 189.775 43.3398 189.929 43.4037C190.421 43.6086 190.823 43.9782 191.249 44.299L191.523 44.5056L192.612 45.3265C192.793 45.4626 192.912 45.6648 192.943 45.8887C192.983 46.171 192.879 46.4544 192.666 46.6439L191.917 47.3108L191.39 47.8354C190.789 48.4332 190.096 48.9303 189.337 49.3075L188.191 49.8771L187.613 50.164C187.235 50.3521 186.842 50.5103 186.439 50.637L184.697 51.1848L183.15 51.8106L179.599 52.7177L176.45 53.5684L173.644 53.9622L171.24 54.2998L168.034 54.7498C167.354 54.7601 166.407 54.7548 165.791 54.7494C165.379 54.7458 164.968 54.7733 164.557 54.8064C163.94 54.8563 162.936 54.9008 161.91 54.7921L160.201 54.7482C159.702 54.7354 159.205 54.6688 158.72 54.5495L158.265 54.4376C157.65 54.2866 157.073 54.0124 156.568 53.6316Z" fill="#B5B5B5" stroke="#979797" stroke-width="0.809347"/>
<path d="M229.479 12.6323L230.393 13.3213" stroke="#FFEDAE" stroke-width="0.809347"/>
<text transform="translate(166.115 26.1631) rotate(-6.62521)" fill="black" stroke="black" xml:space="preserve" style="white-space: pre" font-family="Noto Serif JP" font-size="18" font-weight="100" letter-spacing="0em"><tspan x="4.7369" y="20.785">&#x6e1b;</tspan></text>
<text transform="translate(145.236 31.2366) rotate(-13.642)" fill="black" stroke="black" xml:space="preserve" style="white-space: pre" font-family="Noto Serif JP" font-size="18" font-weight="100" letter-spacing="0em"><tspan x="4.28093" y="20.785">&#x52a0;</tspan></text>
<text transform="translate(127 45.3431) rotate(-24.5295)" fill="#0C0C0C" stroke="black" xml:space="preserve" style="white-space: pre" font-family="Noto Serif JP" font-size="19" font-weight="100" letter-spacing="0em"><tspan x="0.548049" y="18.709">&#x3058;</tspan></text>
<text transform="translate(108 61.7136) rotate(-26.8092)" fill="#0C0C0C" stroke="black" xml:space="preserve" style="white-space: pre" font-family="Noto Serif JP" font-size="19" font-weight="100" letter-spacing="0em"><tspan x="2.37714" y="18.709">&#x3055;</tspan></text>
</svg>
