<svg width="356" height="149" viewBox="0 0 356 149" fill="none" xmlns="http://www.w3.org/2000/svg">
<rect x="2.5" y="12.5" width="351" height="134" rx="39.5" fill="#FFEDAE" fill-opacity="0.72" stroke="#FFC900" stroke-width="5"/>
<rect x="4" y="1" width="73" height="25" rx="10" fill="white" stroke="#FFC900" stroke-width="2"/>
<path d="M22.594 9.714H27.472V10.776H22.594V9.714ZM22.414 12.504H27.724V13.566H22.414V12.504ZM24.448 8.184H25.546V13.116H24.448V8.184ZM21.1 6.636H28.966V7.824H21.1V6.636ZM23.242 14.934H27.364V19.596H23.242V18.552H26.32V15.96H23.242V14.934ZM22.684 14.934H23.71V20.298H22.684V14.934ZM28.462 6.636H29.722V20.748C29.722 21.54 29.56 21.972 29.056 22.188C28.552 22.422 27.652 22.44 26.302 22.44C26.248 22.08 26.086 21.468 25.888 21.09C26.878 21.144 27.814 21.126 28.12 21.108C28.39 21.108 28.462 21.036 28.462 20.748V6.636ZM20.416 6.636H21.658V13.098C21.658 15.924 21.46 19.902 19.948 22.566C19.732 22.332 19.192 21.954 18.886 21.81C20.308 19.308 20.416 15.762 20.416 13.098V6.636ZM14.422 11.334H19.048V12.414H14.422V11.334ZM14.53 6.528H18.994V7.608H14.53V6.528ZM14.422 13.746H19.048V14.826H14.422V13.746ZM13.684 8.886H19.498V10.002H13.684V8.886ZM15.052 16.176H19.03V21.414H15.052V20.298H17.896V17.292H15.052V16.176ZM14.386 16.176H15.502V22.26H14.386V16.176ZM37.696 13.206H48.118V14.502H37.696V13.206ZM38.398 8.85H47.362V10.146H38.398V8.85ZM42.07 5.988H43.42V22.422H42.07V5.988ZM41.782 13.908L42.862 14.25C41.728 17.202 39.676 19.956 37.462 21.396C37.246 21.072 36.85 20.604 36.526 20.334C38.704 19.11 40.738 16.536 41.782 13.908ZM43.726 13.89C44.68 16.392 46.498 18.984 48.334 20.262C48.01 20.514 47.56 21.018 47.326 21.378C45.49 19.848 43.69 17.004 42.682 14.25L43.726 13.89ZM32.98 7.536H37.048V18.012H32.98V16.716H35.806V8.832H32.98V7.536ZM32.314 7.536H33.556V19.434H32.314V7.536ZM52.744 5.952H54.004V22.422H52.744V5.952ZM49.846 11.928H56.956V13.206H49.846V11.928ZM52.546 12.594L53.356 12.954C52.726 15.402 51.448 18.516 50.242 20.154C50.098 19.758 49.774 19.182 49.558 18.822C50.71 17.436 51.97 14.7 52.546 12.594ZM53.968 13.44C54.472 13.98 56.308 16.428 56.722 17.022L55.822 18.102C55.372 17.13 53.896 14.772 53.302 13.998L53.968 13.44ZM49.972 7.284L50.962 7.032C51.466 8.292 51.88 9.93 52.006 11.01L50.944 11.298C50.854 10.218 50.44 8.544 49.972 7.284ZM55.786 6.96L56.974 7.266C56.506 8.634 55.948 10.326 55.462 11.334L54.598 11.064C54.994 9.984 55.534 8.184 55.786 6.96ZM62.77 5.898H64.048V22.44H62.77V5.898ZM56.92 17.346L66.172 15.69L66.388 16.932L57.136 18.606L56.92 17.346ZM58.27 8.094L58.972 7.176C60.016 7.788 61.258 8.706 61.852 9.372L61.132 10.416C60.556 9.714 59.314 8.742 58.27 8.094ZM57.352 12.63L57.982 11.676C59.062 12.234 60.394 13.08 61.042 13.728L60.358 14.79C59.728 14.142 58.432 13.224 57.352 12.63Z" fill="#090808"/>
</svg>
