<svg width="58" height="89" viewBox="0 0 58 89" fill="none" xmlns="http://www.w3.org/2000/svg">
<rect y="15.7262" width="57.1237" height="72.2738" rx="28.5619" fill="white"/>
<path d="M17.5765 5.35361C17.5765 2.39689 19.9734 0 22.9302 0H33.1026C36.0594 0 38.4563 2.39689 38.4563 5.35361V5.35361C38.4563 8.31033 36.0594 10.7072 33.1026 10.7072H22.9302C19.9734 10.7072 17.5765 8.31033 17.5765 5.35361V5.35361Z" fill="white"/>
<path d="M20.0918 7.51898H36.638V17.557H20.0918V7.51898Z" fill="white"/>
<path d="M0.0808126 57.1975C0.0808126 51.6447 6.66369 50.1303 13.0561 54.6735C19.8951 59.5342 17.4784 58.7119 23.1209 54.6735C29.7718 49.9133 36.9079 53.7119 38.6376 56.1879C44.2801 64.2647 45.2205 48.6156 56.9756 53.1588C56.9756 55.178 57.3021 62.3569 55.565 68.8079C54.1936 73.9009 51.4939 78.0292 49.408 80.0068C42.6479 86.4156 38.8887 86.8725 35.2235 87.9756C31.9137 88.9717 26.6044 89.4317 23.8759 88.4737C21.039 87.4776 14.4196 84.9873 12.5283 83.4932C9.77594 81.3187 6.77892 78.7998 4.01764 74.0301C3.28035 72.7566 2.88394 71.1436 2.12637 69.5476C1.65353 68.5515 0.937385 66.454 0.707925 65.5632C-0.331872 61.5266 0.0808126 60.4616 0.0808126 57.1975Z" fill="#6CF6FF"/>
<circle cx="7" cy="61" r="3" fill="white"/>
<circle cx="10.5" cy="65.5" r="1.5" fill="white"/>
<circle cx="10" cy="70" r="1" fill="white"/>
</svg>
