<svg width="130" height="71" viewBox="0 0 130 71" fill="none" xmlns="http://www.w3.org/2000/svg">
<path d="M70.3416 44.3781C70.3478 44.2788 70.4431 44.3495 70.4948 44.3724C70.5566 44.3999 70.6136 44.3526 70.6735 44.3526C70.899 44.3526 71.1679 44.2873 71.3885 44.2305C71.9669 44.0818 72.5861 44.1466 73.176 44.0518C73.5581 43.9904 73.9419 43.942 74.3251 43.8872C74.5203 43.8594 74.6992 43.7652 74.8926 43.734C75.0719 43.7051 75.247 43.6605 75.4232 43.6177C75.742 43.5401 76.0537 43.4653 76.3623 43.351C76.4597 43.3149 76.5219 43.2233 76.629 43.1978C76.685 43.1844 76.8335 43.1268 76.7 43.1268" stroke="#FFEDAE" stroke-width="1.61869" stroke-linecap="round"/>
<path d="M70.4692 44.1994C70.5532 44.1154 70.6891 44.1149 70.7984 44.0845C70.8691 44.0649 70.8904 44.1228 70.9544 44.1228" stroke="#FFEDAE" stroke-width="1.61869" stroke-linecap="round"/>
<path d="M71.1331 44.2504C71.3826 44.1312 71.6343 44.1559 71.8991 44.0915C71.9501 44.0791 72.1881 44.0112 72.2056 44.0461" stroke="#FFEDAE" stroke-width="1.61869" stroke-linecap="round"/>
<path d="M71.1331 44.1227C71.1518 44.0479 71.9354 44.0416 72.0211 44.0333C72.3024 44.0064 72.5867 43.944 72.8695 43.944" stroke="#FFEDAE" stroke-width="1.61869" stroke-linecap="round"/>
<path d="M71.7205 44.1993C71.9618 44.1111 72.2255 44.087 72.478 44.0475C72.7946 43.9981 73.1113 43.9414 73.4299 43.9071C73.7146 43.8764 74.0131 43.8163 74.2996 43.8163" stroke="#FFEDAE" stroke-width="1.61869" stroke-linecap="round"/>
<path d="M73.4824 43.9696C73.692 43.8883 73.9175 43.8627 74.1364 43.8164C74.3879 43.7632 74.6361 43.6941 74.8869 43.6376C75.2173 43.5633 75.5551 43.5153 75.8828 43.4333" stroke="#FFEDAE" stroke-width="1.61869" stroke-linecap="round"/>
<path d="M75.3467 43.4078C75.5766 43.2545 75.969 43.2727 76.2319 43.2291C76.4324 43.1958 76.624 43.1525 76.8278 43.1525" stroke="#FFEDAE" stroke-width="1.61869" stroke-linecap="round"/>
<path d="M75.832 43.3568C76.0615 43.2316 76.3843 43.1525 76.6492 43.1525" stroke="#FFEDAE" stroke-width="1.61869" stroke-linecap="round"/>
<path d="M80.2238 41.5437C80.2238 41.4522 80.2678 41.533 80.2352 41.5423C80.1972 41.5532 80.1591 41.5704 80.1217 41.5891C80.0136 41.6432 79.9154 41.641 79.8039 41.6728C79.733 41.6931 79.6855 41.7811 79.5982 41.8005C79.5127 41.8195 79.4053 41.8636 79.3301 41.9012" stroke="#FFEDAE" stroke-width="1.61869" stroke-linecap="round"/>
<path d="M88.1172 39.9392L84.391 42.5055L81.4101 44.5585L77.2269 46.7803L72.5305 48.2568L68.523 48.8194L64.5156 49.3819L59.5072 49.7282L57.6573 49.7148C56.8125 49.7086 55.9694 49.6364 55.1359 49.4986L51.7863 48.9451L49.5414 48.014C47.9997 47.488 45.8865 46.2785 45.2061 45.7347C44.3377 45.0407 43.5603 42.7443 43.7923 41.4858L45.1774 39.7089L48.4296 36.6769L51.4391 34.8278L54.8831 33.1625L57.6008 32.1453L60.7818 31.5172L63.587 31.1234L66.7929 30.6734L69.6296 30.5033L73.7495 30.7422L77.068 31.0937L80.8434 31.7896L83.3853 32.4306L87.136 32.9495L89.9411 32.5557L91.1287 32.061L91.939 31.5172L94.3671 29.6336L96.8341 27.2049L99.3151 24.6459L102.865 21.1354L106.167 17.6103L108.829 14.8544L112.577 10.6646L115.005 8.18521L117.028 6.16184C118.462 4.73459 118.243 4.54382 119.861 2.92512C120.501 2.28528 121.139 1.81961 121.885 1.30643C122.247 1.05673 122.611 1.2548 123.559 2.46905C123.762 2.72781 123.735 3.09694 123.503 3.32914L123.099 3.73447L121.479 5.35251L120.266 6.56718L117.837 9.39924L116.357 11.0686L114.6 13.0413C114.195 13.446 113.082 14.8633 112.576 15.4693C111.482 16.7824 110.795 17.6552 110.148 18.3021C110.035 18.4151 109.891 18.5518 109.725 18.7066L107.174 21.6032C107.079 21.85 106.698 22.1598 106.102 22.7535L101.65 27.6095L99.2222 30.0376L96.8341 32.4306L93.1529 36.1084L90.7287 38.1663L88.1172 39.9392Z" fill="#979797"/>
<path d="M112.576 15.4693C113.082 14.8633 114.195 13.446 114.6 13.0413L116.357 11.0686L117.837 9.39924L120.266 6.56718L121.479 5.35251L123.099 3.73447L123.503 3.32914V3.32914C123.735 3.09694 123.762 2.72781 123.559 2.46905C122.611 1.2548 122.247 1.05673 121.885 1.30643C121.139 1.81961 120.501 2.28528 119.861 2.92512C118.243 4.54382 118.462 4.73459 117.028 6.16184L115.005 8.18521L112.577 10.6646L108.829 14.8544L106.167 17.6103L102.865 21.1354L99.3151 24.6459L96.8341 27.2049L94.3671 29.6336L91.939 31.5172L91.1287 32.061L89.9411 32.5557L87.136 32.9495L83.3853 32.4306L80.8434 31.7896L77.068 31.0937L73.7495 30.7422L69.6296 30.5033L66.7929 30.6734L63.587 31.1234L60.7818 31.5172L57.6008 32.1453L54.8831 33.1625L51.4391 34.8278L48.4296 36.6769L45.1774 39.7089L43.7923 41.4858C43.5603 42.7443 44.3377 45.0407 45.2061 45.7347C46.1267 46.4704 49.6701 48.4249 50.8723 48.2561L49.5414 48.014L51.7863 48.9451L55.1359 49.4986C55.9694 49.6364 56.8125 49.7086 57.6573 49.7148L59.5072 49.7282L64.5156 49.3819L68.523 48.8194L72.5305 48.2568L77.2269 46.7803L81.4101 44.5585L84.391 42.5055L88.1172 39.9392L90.7287 38.1663L93.1529 36.1084L96.8341 32.4306L99.2222 30.0376L101.65 27.6095L106.102 22.7535C107.536 21.3261 107.72 21.5394 105.697 20.3254C104.316 19.4967 109.29 18.7558 110.148 17.8974C111.767 16.2787 112.135 15.8952 112.576 15.4693ZM112.576 15.4693C111.482 16.7824 110.795 17.6552 110.148 18.3021C109.339 19.1114 106.921 21.1341 106.517 22.3488L112.576 15.4693Z" stroke="#979797" stroke-width="0.809347"/>
<path d="M48.5677 43.6316L48.2568 43.3971C48.0618 43.2502 47.8918 43.0727 47.7533 42.8717L47.5852 42.6275C47.4957 42.4976 47.4377 42.3487 47.4158 42.1925C47.4006 42.0844 47.403 41.9745 47.4228 41.8671L47.4874 41.5166C47.5778 41.0261 47.7812 40.5634 48.0814 40.1652L48.6583 39.3998C49.6918 38.0288 50.0926 37.9725 50.8378 37.4593C50.9621 37.3737 51.185 37.2599 51.4362 37.135C52.3258 36.6927 53.1736 36.122 54.0357 35.6284C54.4246 35.4057 54.833 35.2192 55.2559 35.0711L56.5677 34.6117C57.2168 34.3844 58.0618 33.9933 58.5151 33.9297C58.9159 33.8734 60.0619 33.3039 60.8634 33.1914L61.4797 33.1049C62.135 33.0129 62.7849 32.8576 63.4408 32.7693C64.1997 32.6672 65.159 32.5884 65.6723 32.5163L67.2753 32.2914L69.6797 31.9538L72.9419 31.9045L75.0019 32.024L76.6611 32.1997L78.6125 32.5594C78.9745 32.6261 79.3315 32.7181 79.6881 32.81L79.731 32.8211C80.1997 32.9419 80.7671 33.0689 81.073 33.1359C81.2209 33.1683 81.3673 33.203 81.5113 33.25C81.6263 33.2875 81.7752 33.3398 81.9288 33.4037C82.4209 33.6086 82.8235 33.9782 83.2491 34.299L83.5231 34.5056L84.6121 35.3265C84.7927 35.4626 84.9118 35.6648 84.9432 35.8887C84.9828 36.171 84.8787 36.4544 84.6659 36.6439L83.9169 37.3108L83.3898 37.8354C82.789 38.4332 82.0957 38.9303 81.3367 39.3075L80.1907 39.8771L79.6134 40.164C79.2349 40.3521 78.8422 40.5103 78.439 40.637L76.6965 41.1848L75.1498 41.8106L71.5994 42.7177L68.4497 43.5684L65.6445 43.9622L63.24 44.2998L60.034 44.7498C59.3545 44.7601 58.4068 44.7548 57.7915 44.7494C57.3795 44.7458 56.9682 44.7733 56.5575 44.8064C55.9402 44.8563 54.936 44.9008 53.9104 44.7921L52.2012 44.7482C51.7016 44.7354 51.2049 44.6688 50.7196 44.5495L50.2645 44.4376C49.6502 44.2866 49.0729 44.0124 48.5677 43.6316Z" fill="#B5B5B5" stroke="#979797" stroke-width="0.809347"/>
<path d="M121.479 2.63232L122.393 3.3213" stroke="#FFEDAE" stroke-width="0.809347"/>
<path d="M65.389 21.3465C69.7927 21.5055 68.8921 24.6726 67.1982 23.8183C66.864 22.9692 65.9768 22.0393 65.2605 21.4883L65.389 21.3465ZM64.6795 25.3793C68.8384 25.458 67.8779 28.5777 66.2535 27.6972C65.997 26.8934 65.2254 26.0226 64.5352 25.541L64.6795 25.3793ZM66.3115 32.565C66.526 32.5401 66.5975 32.5318 66.7327 32.1355C66.9661 31.4923 66.9661 31.4923 68.8555 24.5137L69.1857 24.5479C68.8524 26.6705 68.202 30.5877 68.105 31.4688C68.0442 32.0376 68.0212 32.6201 68.0732 33.0671C68.2107 33.9391 68.8879 34.6215 69.0129 36.1654C69.0747 37.0099 68.6701 37.5824 67.9549 37.6655C67.5973 37.707 67.2422 37.4583 67.1001 36.8587C67.1702 34.966 66.8981 33.4029 66.4914 33.1783C66.2224 33.0465 65.9638 33.0041 65.5663 33.014L65.5248 32.6564C65.5248 32.6564 66.1148 32.5879 66.3115 32.565ZM73.1536 32.1871L75.6389 31.8984L75.6991 32.4169L73.2138 32.7056L73.1536 32.1871ZM74.811 28.5153L74.6501 28.534L75.199 27.7998L76.6405 28.6653C76.5636 28.7829 76.3478 28.953 76.0679 29.0398L76.5082 32.8303C76.5028 32.9397 75.9439 33.2764 75.5505 33.3221L75.3717 33.3429L74.811 28.5153ZM71.5655 26.6272L73.872 26.3593L74.5374 25.0679C74.5374 25.0679 75.5469 25.8023 76.1676 26.3101C76.1368 26.513 75.9684 26.6232 75.7181 26.6522L71.7667 27.1112L71.5655 26.6272ZM77.4898 20.3759C80.956 20.2633 79.9793 22.9318 78.5661 22.1536C78.4019 21.5203 77.854 20.8591 77.3613 20.5177L77.4898 20.3759ZM70.3296 23.9438L78.5186 22.9927L79.3271 21.6847C79.3271 21.6847 80.4775 22.3846 81.1918 22.9178C81.161 23.1207 80.9926 23.2309 80.7423 23.2599L70.3899 24.4624L70.3296 23.9438ZM75.284 20.1066L77.4923 20.0857C77.5015 20.3202 77.3655 20.5535 76.9068 20.6611C77.3594 25.3381 78.3222 30.6626 80.9377 33.3669C81.1759 33.7016 81.2653 33.6912 81.3826 33.2971C81.5652 32.841 81.8052 31.9433 81.9725 31.199L82.1912 31.2099L82.1584 34.2036C82.7374 35.133 82.8671 35.6254 82.6218 35.8532C81.9647 36.4369 80.687 35.7336 80.0372 34.9755C77.0738 31.4599 75.9955 26.0764 75.284 20.1066ZM79.1495 25.1483L81.3865 25.6858C81.3241 25.9286 81.1062 26.0808 80.7086 26.0907C80.1553 31.9356 77.7416 35.0247 73.5072 36.9481L73.3172 36.7165C76.9254 34.3947 79.1579 30.8373 79.1495 25.1483ZM69.382 24.0539L69.3612 23.8751L69.2803 23.1778L71.0627 23.8587L70.8124 23.8878L71.3233 28.2862C71.6472 31.0755 71.9058 34.7059 69.4988 37.5405L69.2456 37.3887C70.4842 34.6354 70.2397 31.4383 69.8929 28.4523L69.382 24.0539ZM72.0218 28.8393L71.9574 28.285L73.2733 28.6939L75.2401 28.4655L75.2983 28.9661L73.26 29.2029L73.8062 33.9053C73.8186 34.0125 73.3333 34.3588 72.8506 34.4149L72.6718 34.4357L72.0218 28.8393Z" fill="black"/>
<path d="M56.854 36.6772L61.192 35.6243L61.3151 36.1316L56.9771 37.1844L56.854 36.6772ZM57.7962 25.372L57.6213 25.4144L58.2449 24.2444L60.3687 25.2107C60.2845 25.3978 60.0386 25.6057 59.6924 25.7823L62.4052 36.9598C62.4085 37.1258 61.7492 37.7673 61.1195 37.9202L60.8571 37.9839L57.7962 25.372ZM44.4827 29.5108L51.3572 27.8424L51.4803 28.3496L44.7633 29.9799L44.4827 29.5108ZM46.1673 25.1566L48.5447 24.8019C48.5559 25.077 48.4542 25.2684 48.0339 25.4445C49.1988 30.6259 50.7901 36.6485 47.3178 41.9552L46.996 41.774C49.081 36.3224 47.4622 30.4918 46.1673 25.1566ZM50.71 27.9994L50.5175 28.0461L51.1936 26.8633L53.1818 27.8811C53.08 28.0725 52.8781 28.2326 52.5278 28.3918C53.9883 35.0203 54.4042 38.0311 53.7631 39.2055C53.3434 39.9186 52.6724 40.3593 51.7978 40.5715C51.662 40.0118 51.5119 39.6222 51.2293 39.45C50.899 39.2338 50.2883 39.1597 49.5721 39.1854L49.5217 38.9013C50.1684 38.8184 51.2041 38.6596 51.5715 38.5705C51.8863 38.494 52.0135 38.4076 52.146 38.1902C52.6314 37.4427 52.0479 34.0465 50.71 27.9994ZM53.5806 26.3951L53.398 25.643L55.2948 25.9791L58.7757 25.1343L58.8989 25.6415L55.3304 26.5076L58.1876 38.2798C58.2385 38.4897 57.7239 39.0406 56.9893 39.2189L56.7094 39.2869L53.5806 26.3951Z" fill="black"/>
<path d="M34.1959 39.039C33.5711 38.6767 32.8046 38.2328 31.6076 37.9437L31.6967 37.5897C32.8239 37.4513 33.8587 37.522 34.5729 37.76C35.1786 37.9431 35.5596 38.2287 35.7079 38.5996C35.8499 38.9107 35.745 39.2301 35.3993 39.3878C35.1055 39.5219 34.7467 39.3306 34.1959 39.039ZM35.216 36.652C34.6321 36.3337 33.8044 35.9387 32.6043 35.7345L32.6761 35.3884C33.8489 35.1665 34.783 35.1997 35.4484 35.3764C36.1059 35.5358 36.5372 35.8402 36.7265 36.2551C36.8685 36.5662 36.7809 36.8777 36.4525 37.0276C36.1241 37.1774 35.7998 36.9704 35.216 36.652ZM24.7773 38.2621L24.6353 37.9509C25.0389 37.5997 25.3985 37.2894 25.7867 37.1331C26.8144 36.685 28.7791 37.1459 29.0631 37.7682C29.2603 38.2003 28.9322 38.5798 29.1458 39.5057C29.592 41.307 30.4058 44.0057 31.3918 46.1664C32.3305 48.2233 33.2559 48.7408 35.2437 47.8337C37.9575 46.5953 39.7332 43.7591 40.239 41.2518L40.6778 41.3439C40.7551 44.6711 39.1735 48.0244 35.8375 49.5468C33.4521 50.6353 31.5517 50.0406 30.1319 46.9293C28.9644 44.3711 27.6236 40.4718 27.0872 39.2964C26.7401 38.5359 26.5354 38.3161 26.1217 38.2333C25.7505 38.1521 25.3841 38.1731 24.7773 38.2621Z" fill="#0C0C0C"/>
<path d="M15.7724 57.6444C17.2986 56.8732 18.7077 56.5443 19.5142 56.3709C19.7264 56.3275 19.7432 56.2765 19.5304 56.1924C18.2451 55.6711 16.5166 54.8202 15.0258 53.9344C14.0376 53.3268 12.9549 52.4902 12.1798 52.0516C11.6687 51.7564 11.0748 51.9714 10.0911 52.4259L9.87754 52.1719C10.2574 51.5755 10.7224 51.0212 11.265 50.747C12.0959 50.3271 12.9367 50.2215 13.227 50.5432C14.1488 51.5249 14.8145 52.2103 15.9479 52.9788C17.5842 54.1104 19.5328 54.7649 21.0984 55.251C21.7025 55.4354 21.941 55.5703 22.1379 55.9179C22.4121 56.4605 22.5521 57.4116 22.0264 57.6773C21.5855 57.9001 21.1346 57.766 20.463 57.7009C19.239 57.5957 17.5737 57.6283 15.7423 58.5538C13.9108 59.4792 13.1021 61.1226 13.7705 62.4453C14.3618 63.6154 16.096 63.8035 18.5888 62.5438C19.8267 61.9182 20.3769 61.406 21.0043 61.089C21.6657 60.7548 22.3283 60.7179 22.6111 61.2776C22.9024 61.8541 22.2602 62.6896 19.9031 63.8807C16.8676 65.4146 13.8942 65.5548 12.7716 63.3333C11.8204 61.451 13.0931 58.9984 15.7724 57.6444ZM14.8169 52.7626C16.5171 50.9455 16.708 49.8911 17.0887 49.5071C17.4104 49.2168 17.9618 49.002 18.3363 49.1534C18.6853 49.2963 18.8146 49.7206 18.6634 50.1376C18.3523 50.9122 17.3049 52.3782 16.0867 53.6324C15.1815 54.5795 13.5984 55.9543 12.2673 56.6482C10.3427 57.6421 9.42336 57.2551 7.79566 56.1404L7.94701 55.7659C9.46096 56.1079 10.2002 56.0962 11.4465 55.4451C12.4639 54.9309 13.9203 53.7266 14.8169 52.7626Z" fill="#0C0C0C"/>
</svg>
