<svg width="113" height="64" viewBox="0 0 113 64" fill="none" xmlns="http://www.w3.org/2000/svg">
<path d="M59.7779 48.2332L55.1739 51.404L51.4908 53.9407L46.3222 56.6858L40.5195 58.5102L35.5681 59.2053L30.6166 59.9003L24.4284 60.3282L22.1427 60.3116C21.0989 60.304 20.0572 60.2147 19.0274 60.0445L14.8888 59.3606L12.115 58.2102C10.2101 57.5603 7.59919 56.0659 6.75853 55.394C5.68549 54.5365 4.72498 51.6991 5.01164 50.1442L6.72306 47.9487L10.7413 44.2025L14.4598 41.9179L18.7151 39.8602L22.073 38.6035L26.0032 37.8273L29.4692 37.3408L33.4304 36.7847L36.9352 36.5746L42.0257 36.8698L46.1259 37.3041L50.7907 38.1639L53.9313 38.9559L58.5655 39.5971L62.0314 39.1105L63.5169 38.902L65.4279 38.1288L68.2598 36.7215L72.0124 34.68L75.6261 31.6482L81.9325 26.2188L85.9718 22.6224L89.8641 17.9779L93.3467 14.0136L94.9031 12.0626L96.7518 9.49637C98.5238 7.7329 99.6617 5.04866 100.544 4.13805C100.892 3.77893 101.416 2.0771 102.337 1.44294C103.074 0.935612 108.192 7.18494 104.596 3.14572L105.673 4.70991L103.901 6.47343L102.198 8.73204L99.4984 12.4274L97.4864 14.7294L95.1249 17.2394C94.7224 17.9691 93.5126 19.3152 92.744 20.1454C92.7723 20.3467 91.8897 21.5525 90.9271 22.5004C90.8679 22.5778 90.8046 22.6593 90.7362 22.7456C90.3272 23.2619 87.7515 26.0504 86.1771 27.6532C84.8202 29.3688 82.3385 31.317 81.2812 32.3693L78.5884 34.7669L74.9747 37.7987L71.3611 40.8305L66.262 44.0708L63.0045 46.0427L59.7779 48.2332Z" fill="#979797"/>
<path d="M92.744 20.1454C93.5126 19.3152 94.7224 17.9691 95.1249 17.2394L97.4864 14.7294L99.4984 12.4274L102.198 8.73204L103.901 6.47343L105.673 4.70991L104.596 3.14572C108.192 7.18494 103.074 0.935613 102.337 1.44294C101.416 2.0771 100.892 3.77893 100.544 4.13805C99.6617 5.04866 98.5238 7.7329 96.7518 9.49637L94.9031 12.0626L93.3467 14.0136L89.8641 17.9779L85.9718 22.6224L81.9325 26.2188L75.6261 31.6482L72.0124 34.68L68.2598 36.7215L65.4279 38.1288L63.5169 38.902L62.0314 39.1105L58.5655 39.5971L53.9313 38.9559L50.7907 38.1639L46.1259 37.3041L42.0257 36.8698L36.9352 36.5746L33.4304 36.7847L29.4692 37.3408L26.0032 37.8273L22.073 38.6035L18.7151 39.8602L14.4598 41.9179L10.7413 44.2025L6.72306 47.9487L5.01164 50.1442C4.72498 51.6991 5.68549 54.5365 6.75853 55.394C7.89594 56.303 12.274 58.7179 13.7594 58.5094L12.115 58.2102L14.8888 59.3606L19.0274 60.0445C20.0572 60.2147 21.0989 60.304 22.1427 60.3116L24.4284 60.3282L30.6166 59.9003L35.5681 59.2053L40.5195 58.5102L46.3222 56.6858L51.4908 53.9407L55.1739 51.404L59.7779 48.2332L63.0045 46.0427L66.262 44.0708L71.3611 40.8305L74.9747 37.7987L78.5884 34.7669L81.2812 32.3693C83.0532 30.6056 88.8268 26.3252 86.5988 24.8411C84.9425 23.7378 87.7145 23.8808 89.1999 23.6723C90.3883 23.5055 92.7904 20.4755 92.744 20.1454ZM92.744 20.1454C91.6696 21.306 91.6362 21.6095 90.7362 22.7456C90.1808 23.4467 85.6306 28.337 85.0167 28.7598L92.744 20.1454Z" stroke="#979797"/>
<path d="M10.9123 52.7963L10.5281 52.5067C10.2872 52.3251 10.0771 52.1059 9.90604 51.8574L9.69829 51.5558C9.58777 51.3953 9.51612 51.2113 9.48903 51.0183C9.47028 50.8847 9.47319 50.749 9.49764 50.6163L9.57748 50.1831C9.68918 49.5771 9.94045 49.0055 10.3114 48.5134L11.0243 47.5677C12.3012 45.8737 12.7963 45.8042 13.7171 45.1701C13.8707 45.0643 14.1461 44.9238 14.4565 44.7695C15.5556 44.223 16.6031 43.5178 17.6683 42.9079C18.1488 42.6328 18.6534 42.4023 19.1759 42.2194L20.7967 41.6517C21.5988 41.3708 22.6428 40.8877 23.203 40.809C23.6981 40.7395 25.114 40.0359 26.1043 39.8969L26.8658 39.79C27.6755 39.6763 28.4786 39.4844 29.2889 39.3753C30.2266 39.2491 31.4119 39.1518 32.0461 39.0628L34.0267 38.7848L36.9975 38.3677L41.0282 38.3068L43.5734 38.4544L45.6235 38.6715L48.0345 39.1159C48.4819 39.1984 48.9229 39.3121 49.3635 39.4257L49.4166 39.4393C49.9956 39.5885 50.6966 39.7455 51.0746 39.8283C51.2574 39.8683 51.4383 39.9111 51.6162 39.9692C51.7582 40.0155 51.9423 40.0801 52.1321 40.1592C52.74 40.4123 53.2374 40.869 53.7633 41.2654L54.1019 41.5206L55.4475 42.5349C55.6705 42.703 55.8177 42.9529 55.8565 43.2296C55.9055 43.5783 55.7769 43.9285 55.5138 44.1626L54.5884 44.9866L53.9371 45.6347C53.1948 46.3735 52.3383 46.9877 51.4005 47.4537L49.9845 48.1574L49.2712 48.5119C48.8035 48.7443 48.3183 48.9397 47.8201 49.0964L45.6672 49.7733L43.7562 50.5464L39.3694 51.6671L35.4777 52.7183L32.0117 53.2049L29.0408 53.6219L25.0797 54.178C24.24 54.1907 23.0691 54.1841 22.3088 54.1775C21.7998 54.173 21.2916 54.207 20.7841 54.248C20.0214 54.3095 18.7807 54.3645 17.5135 54.2303L15.4016 54.176C14.7844 54.1602 14.1707 54.0779 13.5711 53.9305L13.0088 53.7922C12.2497 53.6056 11.5365 53.2668 10.9123 52.7963Z" fill="#B5B5B5" stroke="#979797"/>
<path d="M103.763 3.2453L104.893 4.09658" stroke="#FFEDAE"/>
<path d="M37.8154 53.7186C37.8231 53.596 37.9409 53.6832 38.0047 53.7116C38.0812 53.7456 38.1515 53.6871 38.2256 53.6871C38.5042 53.6871 38.8365 53.6064 39.109 53.5363C39.8236 53.3526 40.5887 53.4326 41.3176 53.3155C41.7896 53.2396 42.2639 53.1798 42.7374 53.1121C42.9785 53.0777 43.1996 52.9614 43.4385 52.9228C43.6601 52.8871 43.8765 52.832 44.0941 52.7791C44.488 52.6833 44.8731 52.5908 45.2545 52.4496C45.3749 52.405 45.4517 52.2918 45.584 52.2602C45.6531 52.2438 45.8367 52.1726 45.6717 52.1726" stroke="#FFEDAE" stroke-width="2" stroke-linecap="round"/>
<path d="M37.9731 53.4978C38.0769 53.394 38.2447 53.3934 38.3798 53.3559C38.4672 53.3316 38.4935 53.4032 38.5726 53.4032" stroke="#FFEDAE" stroke-width="2" stroke-linecap="round"/>
<path d="M38.7935 53.5609C39.1018 53.4136 39.4128 53.4442 39.74 53.3646C39.803 53.3493 40.097 53.2653 40.1186 53.3085" stroke="#FFEDAE" stroke-width="2" stroke-linecap="round"/>
<path d="M38.7935 53.4031C38.8166 53.3107 39.7848 53.3028 39.8907 53.2927C40.2383 53.2594 40.5896 53.1823 40.9389 53.1823" stroke="#FFEDAE" stroke-width="2" stroke-linecap="round"/>
<path d="M39.5193 53.4978C39.8175 53.3889 40.1432 53.359 40.4553 53.3102C40.8465 53.2491 41.2377 53.1792 41.6315 53.1367C41.9832 53.0988 42.352 53.0245 42.706 53.0245" stroke="#FFEDAE" stroke-width="2" stroke-linecap="round"/>
<path d="M41.6963 53.2138C41.9552 53.1134 42.2339 53.0817 42.5043 53.0245C42.815 52.9588 43.1217 52.8734 43.4316 52.8037C43.8398 52.7118 44.2572 52.6525 44.6621 52.5513" stroke="#FFEDAE" stroke-width="2" stroke-linecap="round"/>
<path d="M43.9995 52.5197C44.2836 52.3303 44.7684 52.3528 45.0933 52.2989C45.341 52.2578 45.5777 52.2042 45.8295 52.2042" stroke="#FFEDAE" stroke-width="2" stroke-linecap="round"/>
<path d="M44.5991 52.4566C44.8827 52.302 45.2815 52.2042 45.6088 52.2042" stroke="#FFEDAE" stroke-width="2" stroke-linecap="round"/>
<path d="M50.0257 50.2165C50.0257 50.1034 50.08 50.2033 50.0397 50.2148C49.9927 50.2282 49.9458 50.2495 49.8995 50.2726C49.7659 50.3394 49.6446 50.3367 49.5068 50.376C49.4192 50.401 49.3606 50.5098 49.2527 50.5338C49.147 50.5573 49.0143 50.6118 48.9214 50.6582" stroke="#FFEDAE" stroke-width="2" stroke-linecap="round"/>
</svg>
