
<?xml version="1.0" encoding="UTF-8"?> <!-- Generator: Adobe Illustrator 23.1.1, SVG Export Plug-In . SVG Version: 6.00 Build 0) --> <svg xmlns="http://www.w3.org/2000/svg" xmlns:xlink="http://www.w3.org/1999/xlink" id="icon" x="0px" y="0px" viewBox="0 0 1000 1000" style="enable-background:new 0 0 1000 1000;" xml:space="preserve"> <path d="M960,400v40H760v180H520v160H280v160H40v-40h200V740h240V580h240V400H960z M80,140c0-55.1,44.9-100,100-100 s100,44.9,100,100s-44.9,100-100,100S80,195.1,80,140z M120,140c0,33.1,26.9,60,60,60s60-26.9,60-60s-26.9-60-60-60 S120,106.9,120,140z M177.4,880H80V260h80c66.2,0,120,53.8,120,120v73.6l51.8,10.4c27.9,5.6,48.2,30.3,48.2,58.8V720h-96.9 l-20.3-124l-45.6-5.7L177.4,880z M142.6,842l40.3-292.3L297.3,564l19.7,118H340V522.8c0-9.5-6.8-17.7-16.1-19.6L240,486.4V380 c0-44.1-35.9-80-80-80h-40v542H142.6z"></path> </svg> 