<svg width="64" height="64" viewBox="0 0 64 64" fill="none" xmlns="http://www.w3.org/2000/svg">
<circle cx="32" cy="32" r="32" fill="white"/>
<path fill-rule="evenodd" clip-rule="evenodd" d="M28.5425 12.4854C28.7115 11.0887 30.079 10 31.7409 10C33.4028 10 34.7702 11.0887 34.9392 12.4854H38.3189V15.5253C42.5048 17.8615 45.3355 22.3344 45.3355 27.4684C45.3355 32.0835 43.0482 36.1644 39.5452 38.6391L41.3889 50.9306H22.0933L23.7995 38.6456C20.2914 36.1715 18 32.0876 18 27.4684C18 22.3344 20.8307 17.8615 25.0166 15.5253V12.4854H28.5425ZM38.1579 17.0169H25.1777C21.689 19.1879 19.3668 23.057 19.3668 27.4684C19.3668 31.783 21.5881 35.5787 24.9494 37.7744H38.3861C41.7475 35.5787 43.9688 31.783 43.9688 27.4684C43.9688 23.057 41.6466 19.1879 38.1579 17.0169Z" fill="black"/>
<rect x="20.0469" y="50.9297" width="23.5349" height="3.06977" rx="0.730897" fill="black"/>
<rect x="36.7109" y="40.2588" width="1.16944" height="3.50831" fill="white"/>
<path fill-rule="evenodd" clip-rule="evenodd" d="M31.741 46.2524C33.3556 46.2524 34.6646 44.9435 34.6646 43.3289C34.6646 43.0652 34.6297 42.8097 34.5642 42.5668L29.7482 45.4681C30.2703 45.9547 30.9709 46.2524 31.741 46.2524ZM28.9178 44.0911L33.7339 41.1898C33.2117 40.7031 32.5111 40.4053 31.741 40.4053C30.1263 40.4053 28.8174 41.7142 28.8174 43.3289C28.8174 43.5926 28.8523 43.8481 28.9178 44.0911ZM34.1186 41.6273C34.209 41.7534 34.2896 41.8869 34.3593 42.0268L34.1186 41.6273Z" fill="white"/>
<rect x="28.9639" y="47.4219" width="5.55482" height="3.50831" fill="white"/>
</svg>
